<svg xmlns="http://www.w3.org/2000/svg" width="1200" height="600" viewBox="0 0 1200 600">
<defs>
  <radialGradient id="sphereLight" cx="35%" cy="28%" r="68%">
    <stop offset="0%" stop-color="#ffffff" stop-opacity=".98"/>
    <stop offset="16%" stop-color="#ffffff" stop-opacity=".38"/>
    <stop offset="58%" stop-color="#ffffff" stop-opacity="0"/>
    <stop offset="100%" stop-color="#000000" stop-opacity=".28"/>
  </radialGradient>
  <filter id="soft"><feGaussianBlur stdDeviation="3"/></filter>
</defs>
<circle cx="95" cy="100" r="72" fill="#eeeae0"/><circle cx="67" cy="122" r="3.5" fill="#8a8580" opacity="0.218"/><circle cx="81" cy="104" r="3.2" fill="#8a8580" opacity="0.218"/><circle cx="95" cy="122" r="2.9" fill="#8a8580" opacity="0.218"/><ellipse cx="71" cy="72" rx="27.0" ry="12.5" fill="#fff" opacity="0.354" filter="url(#soft)"/><circle cx="95" cy="100" r="72" fill="url(#sphereLight)"/><circle cx="285" cy="100" r="72" fill="#eeeae0"/><circle cx="257" cy="122" r="3.5" fill="#8a8580" opacity="0.194"/><circle cx="271" cy="104" r="3.2" fill="#8a8580" opacity="0.194"/><ellipse cx="261" cy="72" rx="32.4" ry="15.2" fill="#fff" opacity="0.498" filter="url(#soft)"/><circle cx="285" cy="100" r="72" fill="url(#sphereLight)"/><circle cx="475" cy="100" r="72" fill="#eeeae0"/><ellipse cx="451" cy="72" rx="38.2" ry="18.1" fill="#fff" opacity="0.652" filter="url(#soft)"/><circle cx="475" cy="100" r="72" fill="url(#sphereLight)"/><circle cx="695" cy="100" r="72" fill="#f2eee7"/><circle cx="667" cy="122" r="3.5" fill="#8a8580" opacity="0.218"/><circle cx="681" cy="104" r="3.2" fill="#8a8580" opacity="0.218"/><circle cx="695" cy="122" r="2.9" fill="#8a8580" opacity="0.218"/><ellipse cx="671" cy="72" rx="27.0" ry="12.5" fill="#fff" opacity="0.354" filter="url(#soft)"/><ellipse cx="703" cy="102" rx="42" ry="28" fill="#ffdbe9" opacity="0.081" filter="url(#soft)"/><circle cx="695" cy="100" r="72" fill="url(#sphereLight)"/><circle cx="885" cy="100" r="72" fill="#f2eee7"/><circle cx="857" cy="122" r="3.5" fill="#8a8580" opacity="0.194"/><circle cx="871" cy="104" r="3.2" fill="#8a8580" opacity="0.194"/><ellipse cx="861" cy="72" rx="32.4" ry="15.2" fill="#fff" opacity="0.498" filter="url(#soft)"/><ellipse cx="893" cy="102" rx="42" ry="28" fill="#ffdbe9" opacity="0.114" filter="url(#soft)"/><circle cx="885" cy="100" r="72" fill="url(#sphereLight)"/><circle cx="1075" cy="100" r="72" fill="#f2eee7"/><ellipse cx="1051" cy="72" rx="38.2" ry="18.1" fill="#fff" opacity="0.652" filter="url(#soft)"/><ellipse cx="1083" cy="102" rx="42" ry="28" fill="#ffdbe9" opacity="0.149" filter="url(#soft)"/><circle cx="1075" cy="100" r="72" fill="url(#sphereLight)"/><circle cx="95" cy="300" r="72" fill="#4f5954"/><circle cx="67" cy="322" r="3.5" fill="#8a8580" opacity="0.218"/><circle cx="81" cy="304" r="3.2" fill="#8a8580" opacity="0.218"/><circle cx="95" cy="322" r="2.9" fill="#8a8580" opacity="0.218"/><ellipse cx="71" cy="272" rx="27.0" ry="12.5" fill="#fff" opacity="0.354" filter="url(#soft)"/><ellipse cx="107" cy="298" rx="46" ry="30" fill="#68b68f" opacity="0.115" filter="url(#soft)"/><circle cx="95" cy="300" r="72" fill="url(#sphereLight)"/><circle cx="285" cy="300" r="72" fill="#4f5954"/><circle cx="257" cy="322" r="3.5" fill="#8a8580" opacity="0.194"/><circle cx="271" cy="304" r="3.2" fill="#8a8580" opacity="0.194"/><ellipse cx="261" cy="272" rx="32.4" ry="15.2" fill="#fff" opacity="0.498" filter="url(#soft)"/><ellipse cx="297" cy="298" rx="46" ry="30" fill="#68b68f" opacity="0.163" filter="url(#soft)"/><circle cx="285" cy="300" r="72" fill="url(#sphereLight)"/><circle cx="475" cy="300" r="72" fill="#4f5954"/><ellipse cx="451" cy="272" rx="38.2" ry="18.1" fill="#fff" opacity="0.652" filter="url(#soft)"/><ellipse cx="487" cy="298" rx="46" ry="30" fill="#68b68f" opacity="0.214" filter="url(#soft)"/><circle cx="475" cy="300" r="72" fill="url(#sphereLight)"/><circle cx="695" cy="300" r="72" fill="#f0eee2"/><circle cx="667" cy="322" r="3.5" fill="#8a8580" opacity="0.218"/><circle cx="681" cy="304" r="3.2" fill="#8a8580" opacity="0.218"/><circle cx="695" cy="322" r="2.9" fill="#8a8580" opacity="0.218"/><ellipse cx="671" cy="272" rx="27.0" ry="12.5" fill="#fff" opacity="0.354" filter="url(#soft)"/><circle cx="695" cy="300" r="72" fill="url(#sphereLight)"/><circle cx="885" cy="300" r="72" fill="#f0eee2"/><circle cx="857" cy="322" r="3.5" fill="#8a8580" opacity="0.194"/><circle cx="871" cy="304" r="3.2" fill="#8a8580" opacity="0.194"/><ellipse cx="861" cy="272" rx="32.4" ry="15.2" fill="#fff" opacity="0.498" filter="url(#soft)"/><circle cx="885" cy="300" r="72" fill="url(#sphereLight)"/><circle cx="1075" cy="300" r="72" fill="#f0eee2"/><ellipse cx="1051" cy="272" rx="38.2" ry="18.1" fill="#fff" opacity="0.652" filter="url(#soft)"/><circle cx="1075" cy="300" r="72" fill="url(#sphereLight)"/><circle cx="95" cy="500" r="72" fill="#d8ad62"/><circle cx="67" cy="522" r="3.5" fill="#8a8580" opacity="0.218"/><circle cx="81" cy="504" r="3.2" fill="#8a8580" opacity="0.218"/><circle cx="95" cy="522" r="2.9" fill="#8a8580" opacity="0.218"/><ellipse cx="71" cy="472" rx="27.0" ry="12.5" fill="#fff" opacity="0.354" filter="url(#soft)"/><ellipse cx="103" cy="504" rx="46" ry="30" fill="#ffe5ad" opacity="0.125" filter="url(#soft)"/><circle cx="95" cy="500" r="72" fill="url(#sphereLight)"/><circle cx="285" cy="500" r="72" fill="#d8ad62"/><circle cx="257" cy="522" r="3.5" fill="#8a8580" opacity="0.194"/><circle cx="271" cy="504" r="3.2" fill="#8a8580" opacity="0.194"/><ellipse cx="261" cy="472" rx="32.4" ry="15.2" fill="#fff" opacity="0.498" filter="url(#soft)"/><ellipse cx="293" cy="504" rx="46" ry="30" fill="#ffe5ad" opacity="0.173" filter="url(#soft)"/><circle cx="285" cy="500" r="72" fill="url(#sphereLight)"/><circle cx="475" cy="500" r="72" fill="#d8ad62"/><ellipse cx="451" cy="472" rx="38.2" ry="18.1" fill="#fff" opacity="0.652" filter="url(#soft)"/><ellipse cx="483" cy="504" rx="46" ry="30" fill="#ffe5ad" opacity="0.224" filter="url(#soft)"/><circle cx="475" cy="500" r="72" fill="url(#sphereLight)"/><ellipse cx="695" cy="500" rx="72" ry="34" fill="#6d4b31"/><path d="M633 495 C660 482,675 514,700 494 S740 512,757 496" stroke="#9a7755" stroke-width="2.6" fill="none" opacity="0.398"/><ellipse cx="677" cy="490" rx="20.8" ry="8.4" fill="#fff" opacity="0.119" filter="url(#soft)"/><ellipse cx="885" cy="500" rx="72" ry="34" fill="#6d4b31"/><path d="M823 495 C850 482,865 514,890 494 S930 512,947 496" stroke="#9a7755" stroke-width="3.2" fill="none" opacity="0.503"/><ellipse cx="867" cy="490" rx="23.8" ry="9.9" fill="#fff" opacity="0.161" filter="url(#soft)"/><ellipse cx="1075" cy="500" rx="72" ry="34" fill="#6d4b31"/><path d="M1013 495 C1040 482,1055 514,1080 494 S1120 512,1137 496" stroke="#9a7755" stroke-width="3.8" fill="none" opacity="0.615"/><ellipse cx="1057" cy="490" rx="27.0" ry="11.5" fill="#fff" opacity="0.206" filter="url(#soft)"/></svg>